<svg xmlns="http://www.w3.org/2000/svg" enable-background="new 0 0 24 24" viewBox="0 0 24 24" id="linkedin">
  <g fill="#0077b5">
    <path d="M23.495 23.5v-.001h.005v-8.435c0-4.127-.888-7.305-5.712-7.305-2.319 0-3.875 1.273-4.511 2.48h-.067v-2.095h-4.574v15.355h4.763v-7.603c0-2.002.38-3.937 2.859-3.937 2.443 0 2.479 2.285 2.479 4.067v7.474zM.88 8.145h4.769v15.355h-4.769zM3.262.5c-1.525 0-2.762 1.238-2.762 2.762 0 1.525 1.237 2.787 2.762 2.787 1.524 0 2.762-1.263 2.762-2.787-.001-1.524-1.238-2.762-2.762-2.762z"></path>
  </g>
  <path d="M23.245 24h-4.655c-.414 0-.75-.336-.75-.75v-7.312c0-2.232-.242-3.228-1.675-3.228-1.296 0-2.046.507-2.046 3.102v7.438c0 .414-.336.75-.75.75h-4.66c-.414 0-.75-.336-.75-.75v-15.022c0-.414.336-.75.75-.75h4.474c.414 0 .75.336.75.75v.12c.902-.709 2.155-1.247 3.729-1.247 5.618 0 6.338 4.22 6.338 7.896v8.252c0 .414-.336.75-.75.75zm-3.905-1.5h3.16v-7.503c0-4.663-1.312-6.396-4.838-6.396-1.98 0-3.257 1.091-3.75 2.025-.13.246-.385.4-.664.4-.414 0-.815-.336-.815-.75v-1.298h-2.974v13.521h3.16v-6.688c0-1.138 0-4.602 3.546-4.602 3.175 0 3.175 3.076 3.175 4.728zM5.787 24h-4.665c-.414 0-.75-.336-.75-.75v-15.021c0-.414.336-.75.75-.75h4.665c.414 0 .75.336.75.75v15.021c0 .414-.336.75-.75.75zm-3.915-1.5h3.165v-13.521h-3.165zM3.452 6.929c-1.904 0-3.452-1.56-3.452-3.477 0-1.903 1.548-3.452 3.452-3.452 1.903 0 3.451 1.549 3.451 3.452 0 1.917-1.549 3.477-3.451 3.477zm0-5.429c-1.077 0-1.952.875-1.952 1.952 0 1.09.875 1.977 1.952 1.977 1.076 0 1.951-.887 1.951-1.977 0-1.077-.876-1.952-1.951-1.952z"></path>
</svg>
